<?xml version="1.0" encoding="UTF-8"?>
<!DOCTYPE svg PUBLIC "-//W3C//DTD SVG 1.0//EN" "http://www.w3.org/TR/2001/REC-SVG-20010904/DTD/svg10.dtd">
<!-- Creator: CorelDRAW 2020 (64-Bit) -->
<svg xmlns="http://www.w3.org/2000/svg" xml:space="preserve" width="78.1292cm" height="56.148cm" version="1.0" shape-rendering="geometricPrecision" text-rendering="geometricPrecision" image-rendering="optimizeQuality" fill-rule="evenodd" clip-rule="evenodd"
viewBox="0 0 23633 16984"
 xmlns:xlink="http://www.w3.org/1999/xlink"
 xmlns:xodm="http://www.corel.com/coreldraw/odm/2003">
 <g id="Layer_x0020_1">
  <metadata id="CorelCorpID_0Corel-Layer"/>
  <ellipse fill="#666666" cx="11692" cy="16138" rx="11692" ry="846"/>
  <g id="_1659616223984">
   <g>
    <path fill="#A1E9FF" stroke="black" stroke-width="20" stroke-miterlimit="2.61313" d="M15360 3458c1461,-567 2105,2234 3158,3351 1565,-332 3704,-2210 4694,-996 991,1214 -1474,2692 -2211,4039 799,1386 3246,2839 2398,4157 -849,1318 -3016,-570 -4524,-855 -1071,1188 -1697,3965 -3213,3565 -1515,-400 -390,-3045 -585,-4567 -1461,-651 -4295,-389 -4383,-1954 -88,-1565 2775,-1312 4163,-1968 168,-1591 -957,-4205 504,-4772z"/>
    <path fill="white" stroke="black" stroke-width="22" stroke-miterlimit="2.61313" d="M19724 7915c0,0 929,1438 527,2429 -402,991 -1602,724 -1602,724 0,0 -1061,-564 -1132,-1001 -71,-436 120,-2188 120,-2188l2087 35z"/>
    <path fill="black" stroke="black" stroke-width="2" stroke-miterlimit="2.61313" d="M18199 7962c0,0 422,639 480,818l-617 607 926 268c0,0 251,826 -335,1399 0,0 -450,-143 -569,-297 -119,-154 -688,-1601 -688,-1601l803 -1194z"/>
    <path fill="white" stroke="black" stroke-width="22" stroke-miterlimit="2.61313" d="M17510 8696c0,0 951,1131 769,2231 -182,1099 -1615,1261 -2158,858 -543,-403 -1060,-1533 -1048,-2171 12,-638 2438,-918 2438,-918z"/>
    <path fill="black" stroke="black" stroke-width="2" stroke-miterlimit="2.61313" d="M16075 8974c108,143 402,540 449,685l-625 687 1035 185c0,0 362,1157 -307,1440l-16 -2c-8,-1 -15,-2 -23,-3l-15 -3c-8,-1 -16,-3 -24,-4l-13 -3c-9,-2 -17,-4 -26,-5l-11 -2c-9,-2 -18,-4 -26,-6l-12 -3c-9,-2 -17,-5 -26,-7l-10 -3c-9,-3 -17,-5 -26,-8l-9 -3c-9,-3 -18,-6 -27,-9l-7 -2c-10,-3 -19,-7 -28,-10l-4 -2c-10,-4 -19,-8 -29,-12l-3 -1c-10,-4 -19,-8 -29,-13l-3 -1c-10,-5 -19,-9 -28,-14l-2 -1c-9,-5 -19,-10 -28,-15l-1 -1c-9,-5 -19,-11 -28,-16l0 0c-9,-6 -18,-12 -27,-17l0 0c-9,-6 -18,-12 -26,-18 -8,-6 -16,-12 -23,-18l-8 -6c-5,-4 -11,-9 -16,-13l-8 -7c-5,-4 -10,-9 -16,-13l-8 -7c-5,-5 -11,-9 -16,-14l-8 -7c-7,-6 -13,-12 -20,-18l-3 -3 0 0c-8,-7 -15,-15 -23,-22l-8 -8c-5,-5 -11,-11 -16,-16l-8 -8c-5,-5 -10,-11 -15,-16l-9 -9c-5,-5 -10,-11 -15,-16l-9 -9c-6,-7 -12,-13 -18,-20l-5 -6c-7,-9 -15,-17 -22,-26l-8 -9c-5,-6 -10,-12 -14,-17l-9 -12c-5,-6 -9,-11 -14,-17l-8 -11c-5,-6 -10,-12 -15,-19l-8 -10c-5,-7 -10,-14 -16,-21l-7 -9c-7,-9 -14,-19 -21,-29l-7 -10c-5,-7 -10,-14 -15,-21l-8 -11 -13 -19 -9 -14 -12 -18 -8 -12c-5,-7 -10,-15 -15,-23l-6 -10 -1 -1c-6,-10 -12,-19 -19,-29l0 -1 -9 -14 -12 -19 -9 -15 -11 -18 -10 -17 -10 -16 -10 -17 -10 -17 -9 -16 0 -1c-6,-10 -12,-21 -17,-31l0 0 -10 -18 -8 -15 -11 -20 -8 -15 -11 -21 -6 -12 -11 -22 -6 -11c-13,-26 -26,-52 -39,-79l-5 -11c-4,-8 -8,-17 -12,-25l-4 -9c-4,-9 -8,-17 -12,-26l-4 -9c-4,-9 -8,-17 -12,-26l-3 -7c-18,-40 -35,-81 -52,-121l-3 -7c-4,-9 -7,-18 -11,-27l-3 -7c-4,-9 -7,-19 -11,-28l-2 -5c-16,-42 -32,-85 -46,-127l0 -1c-3,-10 -7,-20 -10,-30l-1 -4c-18,-53 -34,-106 -48,-158l0 -1c-3,-10 -6,-21 -8,-31l0 0c-17,-63 -31,-124 -43,-184l0 -1c-1,-18 -4,-35 -9,-51 -10,-57 -17,-113 -21,-166l858 -729 0 0 2 -1 2 -1 2 -1 2 -1 28 -9 2 -1 2 -1 22 -7 2 -1 2 -1 18 -5 2 -1 1 0c12,-3 23,-7 35,-10l2 -1 2 -1 11 -3 2 -1z"/>
    <path fill="#A1E9FF" stroke="black" stroke-width="22" stroke-miterlimit="2.61313" d="M19910 8217c0,0 150,33 140,-117 -10,-150 -338,-1318 -1785,-1241 0,0 -950,155 -1194,1012 -243,856 810,670 810,670 0,0 621,-759 2029,-324z"/>
    <path fill="#A1E9FF" stroke="black" stroke-width="22" stroke-miterlimit="2.61313" d="M17685 8887c0,0 229,-12 219,-162 -10,-150 -422,-1207 -1711,-1090 -300,34 -1124,238 -1367,1094 -243,856 202,1506 305,1332 104,-173 448,-1369 2554,-1174z"/>
    <path fill="none" stroke="black" stroke-width="22" stroke-miterlimit="2.61313" d="M19834 7592c0,0 -401,-332 -1260,76"/>
    <path fill="none" stroke="black" stroke-width="22" stroke-miterlimit="2.61313" d="M17312 7909c0,0 452,-551 977,-615"/>
    <path fill="none" stroke="black" stroke-width="22" stroke-miterlimit="2.61313" d="M17839 8481c0,0 -368,-215 -745,-45"/>
    <path fill="none" stroke="black" stroke-width="22" stroke-miterlimit="2.61313" d="M16087 8370c0,0 -760,-93 -1299,1072"/>
    <path fill="none" stroke="black" stroke-width="33" stroke-miterlimit="2.61313" d="M19208 11651c-259,-160 -643,10 -827,378"/>
   </g>
   <g>
    <path fill="#8CFFBC" stroke="black" stroke-width="21" stroke-miterlimit="2.61313" d="M1807 5642c57,186 489,1523 1126,1842 686,343 30,-1744 30,-1744l-40 -73c0,0 -726,-1 -1116,-24z"/>
    <path fill="white" stroke="black" stroke-width="21" stroke-miterlimit="2.61313" d="M1413 5218c0,0 -52,388 298,417 350,30 1212,31 1212,31 0,0 264,-918 18,-1052 0,0 157,67 373,-7 216,-75 544,-991 544,-991l-343 -559c0,0 425,-991 1096,-1647 0,0 231,-425 -37,-768 -268,-343 -1178,492 -1729,1476l60 -1565c0,0 15,-432 -388,-507 -403,-75 -574,656 -574,656l-97 1312 -380 -7c0,0 -268,75 -283,507 0,0 22,350 75,477 0,0 -127,52 -142,291 -15,239 -134,566 388,1006l-90 932z"/>
    <path fill="none" stroke="black" stroke-width="21" stroke-miterlimit="2.61313" d="M3520 3064c0,0 -273,-686 -1190,-514 -93,7 -395,186 -194,656 201,470 678,574 678,574"/>
    <path fill="none" stroke="black" stroke-width="21" stroke-miterlimit="2.61313" d="M2248 2363c0,0 -179,-350 -470,-350"/>
    <path fill="none" stroke="black" stroke-width="21" stroke-miterlimit="2.61313" d="M1242 2945c0,0 13,25 26,68 65,212 273,831 762,689 117,-43 241,-206 106,-497"/>
    <path fill="#8CFFBC" stroke="black" stroke-width="21" stroke-miterlimit="2.61313" d="M5933 11466c0,0 -999,768 -969,1990 0,0 134,529 127,924 0,0 -75,-1208 -432,-1699 -358,-492 -470,-887 -1625,-850 -1155,37 -835,1603 -686,1834 149,231 1088,1796 1819,2080 730,283 1193,30 1193,30 0,0 611,-298 522,-909 -89,-611 -209,-1968 1222,-2982 1431,-1014 -1170,-417 -1170,-417z"/>
    <path fill="#8CFFBC" stroke="black" stroke-width="21" stroke-miterlimit="2.61313" d="M8639 11809c0,0 566,1282 179,2087 0,0 -276,820 -507,924 -231,104 -171,537 -171,537 0,0 67,656 1051,626 984,-30 2490,45 3086,-194 596,-239 75,-1357 75,-1357 0,0 -328,-820 -1282,-745 -954,75 -1759,812 -1759,812 0,0 276,-216 388,-432 112,-216 649,-1208 134,-2691l-1193 432z"/>
    <path fill="#8CFFBC" stroke="black" stroke-width="32" stroke-miterlimit="2.61313" d="M12869 6445c9,126 14,252 14,380 0,2834 -2297,5131 -5131,5131 -2834,0 -5131,-2297 -5131,-5131 0,-2333 1558,-4303 3690,-4926 50,2674 2233,4826 4918,4826 575,0 1127,-99 1640,-280z"/>
    <path fill="#8CFFBC" stroke="black" stroke-width="20" stroke-miterlimit="2.61313" d="M14251 8575c0,0 733,-179 635,-700 -98,-521 -342,-537 -342,-537 0,0 -863,0 -1351,-277 -488,-277 -1644,-651 -2605,602 -960,1254 2572,-277 3101,-114 0,0 -383,-24 -529,163 -147,187 586,1009 1091,863z"/>
    <polygon fill="#8CFFBC" points="10931,7762 9805,8351 10260,9267 12205,7344 "/>
    <path fill="white" stroke="black" stroke-width="21" stroke-miterlimit="2.61313" d="M11651 7983c0,0 712,-611 1740,-283 1029,328 768,1364 462,1446 -306,82 -663,171 -880,119l-22 -492c0,0 37,686 -186,939 -224,253 -723,760 -872,1282 -149,522 -835,604 -835,604 0,0 -127,-827 246,-1260 0,0 -306,212 -272,1334 0,0 -160,309 -555,272 -395,-37 -410,-738 -410,-738 0,0 -67,-581 104,-932 0,0 -241,687 -50,1279 0,0 -397,-17 -435,-621 -37,-604 -66,-747 3,-1238 69,-491 474,-1478 1905,-1664l648 52 -593 -101z"/>
    <path fill="white" stroke="black" stroke-width="21" stroke-miterlimit="2.61313" d="M5065 4282c0,0 -716,1640 -134,2594 581,954 1774,477 1774,477 0,0 999,-760 999,-1222 0,-462 -492,-2236 -492,-2236l-2147 388z"/>
    <path fill="black" stroke="black" stroke-width="2" stroke-miterlimit="2.61313" d="M6645 4073c0,0 -328,730 -358,924l738 522 -909 432c0,0 -119,894 581,1386 0,0 440,-224 537,-403 97,-179 440,-1767 440,-1767l-1029 -1096z"/>
    <path fill="white" stroke="black" stroke-width="21" stroke-miterlimit="2.61313" d="M7480 4714c0,0 -790,1327 -417,2430 373,1103 1878,1029 2370,522 492,-507 835,-1759 716,-2415 -119,-656 -2668,-537 -2668,-537z"/>
    <path fill="black" stroke="black" stroke-width="2" stroke-miterlimit="2.61313" d="M9006 4759c-87,165 -324,624 -348,782l760 604 -1036 365c0,0 -178,1254 559,1433l16 -5c8,-2 15,-5 23,-7l15 -5c8,-3 16,-6 24,-9l13 -5c9,-3 17,-7 26,-10l11 -4c9,-4 18,-7 26,-11l11 -5c9,-4 17,-8 25,-11l10 -5c9,-4 17,-8 25,-12l9 -4c9,-5 18,-9 26,-14l7 -4c9,-5 18,-10 27,-15l4 -2c9,-6 19,-11 28,-17l3 -2c9,-6 19,-12 28,-18l3 -2c9,-6 18,-13 27,-19l2 -2c9,-7 18,-13 26,-20l1 -1c9,-7 17,-14 26,-21l0 0c9,-7 17,-15 25,-23l0 0c8,-8 16,-15 24,-23 7,-7 14,-15 21,-22l7 -8c5,-5 10,-11 15,-16l7 -8c5,-5 9,-11 14,-16l8 -9c5,-6 9,-11 14,-17l7 -9c6,-7 12,-15 17,-22l3 -4 0 -1c7,-9 13,-18 20,-27l7 -9c5,-6 9,-13 14,-19l7 -10c4,-6 9,-13 13,-19l7 -11c4,-6 8,-13 12,-19l7 -11c5,-8 10,-16 15,-23l4 -7c6,-10 12,-20 19,-31l6 -11c4,-7 8,-14 12,-20l8 -14c4,-7 8,-13 11,-20l7 -12c4,-7 8,-14 12,-22l6 -12c4,-8 8,-16 13,-24l6 -11c6,-11 11,-22 17,-33l6 -11c4,-8 8,-16 12,-24l6 -13 10 -22 7 -16 10 -21 6 -14c4,-9 8,-17 11,-26l5 -11 0 -1c5,-11 10,-22 14,-33l0 -1 7 -16 9 -21 7 -17 8 -20 7 -19 7 -18 7 -19 7 -20 7 -18 0 -1c4,-12 8,-23 13,-35l0 -1 7 -20 6 -17 8 -22 6 -17 8 -23 4 -13 8 -25 4 -12c9,-29 18,-58 27,-88l4 -12c3,-9 5,-18 8,-28l3 -9c3,-9 5,-19 8,-28l3 -10c3,-10 5,-19 8,-29l2 -7c12,-45 23,-89 33,-134l2 -8c2,-10 4,-20 7,-30l2 -7c2,-10 4,-21 7,-31l1 -5c10,-46 18,-93 26,-138l0 -1c2,-11 4,-22 5,-33l1 -4c9,-58 17,-115 23,-171l0 -1c1,-11 2,-22 4,-34l0 0c7,-68 11,-134 13,-197l0 -1c-2,-19 -1,-37 1,-54 0,-61 -2,-119 -6,-175l-1007 -607 0 0 -2 0 -2 0 -2 0 -2 0 -31 -4 -2 0 -2 0 -24 -3 -2 0 -2 0 -19 -2 -2 0 -1 0c-13,-2 -25,-3 -38,-5l-2 0 -2 0 -12 -1 -2 0z"/>
    <path fill="#8CFFBC" stroke="black" stroke-width="21" stroke-miterlimit="2.61313" d="M4923 4625c0,0 -149,60 -164,-97 -15,-157 127,-1416 1632,-1580 0,0 1006,0 1401,842 395,842 -723,827 -723,827 0,0 -768,-678 -2147,7z"/>
    <path fill="#8CFFBC" stroke="black" stroke-width="21" stroke-miterlimit="2.61313" d="M7331 4941c0,0 -239,26 -253,-130 -15,-157 232,-1315 1581,-1412 315,-15 1199,56 1594,898 395,842 46,1587 -90,1425 -136,-161 -692,-1336 -2831,-781z"/>
    <path fill="none" stroke="black" stroke-width="21" stroke-miterlimit="2.61313" d="M4897 3967c0,0 358,-410 1312,-134"/>
    <path fill="none" stroke="black" stroke-width="21" stroke-miterlimit="2.61313" d="M7551 3870c0,0 -559,-492 -1111,-470"/>
    <path fill="none" stroke="black" stroke-width="21" stroke-miterlimit="2.61313" d="M7104 4548c0,0 343,-283 760,-171"/>
    <path fill="none" stroke="black" stroke-width="21" stroke-miterlimit="2.61313" d="M8893 4138c0,0 768,-224 1521,887"/>
    <path fill="black" stroke="black" stroke-width="43" stroke-miterlimit="2.61313" d="M7590 7976c0,0 -1386,-127 -1849,-321 0,0 -246,-149 -179,97 0,0 343,350 335,716 -7,365 -186,738 -186,738 0,0 -89,276 298,253 388,-22 1483,-432 1483,-432l97 -1051z"/>
    <path fill="white" stroke="black" stroke-width="2" stroke-miterlimit="2.61313" d="M7389 7969c0,0 -357,662 -1509,337 -70,-300 -317,-553 -317,-553 -67,-246 179,-97 179,-97 356,149 1263,259 1659,301l-11 12z"/>
    <path fill="white" stroke="black" stroke-width="2" stroke-miterlimit="2.61313" d="M5816 8967c0,0 917,-121 1282,200 -354,121 -852,278 -1088,292 -388,22 -298,-253 -298,-253 0,0 48,-99 95,-245 3,2 7,4 10,7z"/>
    <path fill="#8CFFBC" stroke="black" stroke-width="21" stroke-miterlimit="2.61313" d="M9520 8147c0,0 -525,-1058 -1580,-656 -235,75 -1170,924 -171,2504 999,1580 1752,-1849 1752,-1849z"/>
    <polygon fill="#8CFFBC" points="7187,9985 7846,9495 8250,9512 9581,8040 10698,6884 9341,10238 7895,10790 "/>
    <path fill="none" stroke="black" stroke-width="21" stroke-miterlimit="2.61313" d="M3258 12242c0,0 760,134 999,1088"/>
    <g>
     <path fill="#74DB9F" fill-opacity="0.301961" d="M3219 7626c80,0 144,65 144,144 0,80 -65,144 -144,144 -80,0 -144,-65 -144,-144 0,-80 65,-144 144,-144z"/>
     <path fill="#74DB9F" fill-opacity="0.301961" d="M3791 5896c196,0 354,158 354,354 0,196 -158,354 -354,354 -196,0 -354,-158 -354,-354 0,-196 158,-354 354,-354z"/>
     <path fill="#74DB9F" fill-opacity="0.301961" d="M4784 3062c213,0 404,94 534,242 -226,184 -536,546 -608,1174 -357,-37 -636,-339 -636,-706 0,-392 318,-710 710,-710z"/>
     <path fill="#74DB9F" fill-opacity="0.301961" d="M8198 10133c299,0 542,242 542,542 0,299 -242,542 -542,542 -299,0 -542,-242 -542,-542 0,-299 242,-542 542,-542z"/>
     <path fill="#74DB9F" fill-opacity="0.301961" d="M9100 9395c128,0 231,104 231,231 0,128 -104,231 -231,231 -128,0 -231,-104 -231,-231 0,-128 104,-231 231,-231z"/>
     <path fill="#74DB9F" fill-opacity="0.301961" d="M6050 10458c80,0 144,65 144,144 0,80 -65,144 -144,144 -80,0 -144,-65 -144,-144 0,-80 65,-144 144,-144z"/>
     <path fill="#74DB9F" fill-opacity="0.301961" d="M5078 9720c128,0 231,104 231,231 0,128 -104,231 -231,231 -128,0 -231,-104 -231,-231 0,-128 104,-231 231,-231z"/>
    </g>
   </g>
  </g>
 </g>
</svg>
