<?xml version="1.0" encoding="UTF-8"?>
<!DOCTYPE svg PUBLIC "-//W3C//DTD SVG 1.0//EN" "http://www.w3.org/TR/2001/REC-SVG-20010904/DTD/svg10.dtd">
<!-- Creator: CorelDRAW 2020 (64-Bit) -->
<svg xmlns="http://www.w3.org/2000/svg" xml:space="preserve" width="10.291cm" height="1.90148cm" version="1.0" shape-rendering="geometricPrecision" text-rendering="geometricPrecision" image-rendering="optimizeQuality" fill-rule="evenodd" clip-rule="evenodd"
viewBox="0 0 2193 405"
 xmlns:xlink="http://www.w3.org/1999/xlink"
 xmlns:xodm="http://www.corel.com/coreldraw/odm/2003">
 <g id="Layer_x0020_1">
  <metadata id="CorelCorpID_0Corel-Layer"/>
  <g id="_1974501735264">
   <path fill="white" d="M163 264c30,32 65,55 119,52 55,-3 97,-40 125,-90 10,124 -129,179 -183,179 -54,0 -11,0 -17,-1 -6,-53 -27,-104 -44,-141z"/>
   <path fill="white" d="M219 5c-88,18 -112,95 -112,131 0,36 0,6 0,9 -21,-32 -47,-53 -67,-67 37,-59 99,-92 178,-73z"/>
   <path fill="white" d="M98 160c2,39 18,74 43,101 18,37 38,88 44,141 -104,-9 -185,-95 -185,-201 0,-39 11,-76 31,-107 20,13 46,35 67,67z"/>
   <path fill="white" d="M225 36c0,0 7,0 7,5 0,31 25,55 57,55 11,0 10,7 10,7 0,0 2,9 -6,9 -31,0 -57,22 -57,54 0,6 -9,8 -9,8 0,0 -9,-1 -9,-9 -1,-16 -23,-52 -54,-52 -9,0 -9,-8 -9,-8 0,0 0,-9 13,-9 17,0 52,-24 52,-55 0,-5 7,-5 7,-5z"/>
  </g>
  <g id="_1974501736032">
   <polygon fill="white" fill-rule="nonzero" points="508,129 565,129 613,246 615,246 663,129 720,129 720,319 676,319 676,202 674,202 629,317 600,317 554,202 553,202 553,319 508,319 "/>
   <path id="1" fill="white" fill-rule="nonzero" d="M815 321c-15,0 -28,-3 -38,-9 -11,-6 -19,-15 -25,-26 -6,-11 -9,-24 -9,-38 0,-15 3,-27 9,-38 6,-11 14,-20 25,-26 11,-6 24,-9 38,-9 15,0 28,3 38,9 11,6 19,15 25,26 6,11 9,24 9,38 0,15 -3,27 -9,38 -6,11 -14,20 -25,26 -11,6 -24,9 -38,9zm0 -34c5,0 10,-2 14,-5 4,-3 7,-8 9,-14 2,-6 3,-13 3,-21 0,-8 -1,-15 -3,-21 -2,-6 -5,-11 -9,-14 -4,-3 -8,-5 -14,-5 -6,0 -10,2 -14,5 -4,3 -7,8 -9,14 -2,6 -3,13 -3,21 0,8 1,15 3,21 2,6 5,11 9,14 4,3 9,5 14,5z"/>
   <path id="2" fill="white" fill-rule="nonzero" d="M977 321c-15,0 -28,-3 -38,-9 -11,-6 -19,-15 -25,-26 -6,-11 -9,-24 -9,-38 0,-15 3,-27 9,-38 6,-11 14,-20 25,-26 11,-6 24,-9 38,-9 15,0 28,3 38,9 11,6 19,15 25,26 6,11 9,24 9,38 0,15 -3,27 -9,38 -6,11 -14,20 -25,26 -11,6 -24,9 -38,9zm0 -34c5,0 10,-2 14,-5 4,-3 7,-8 9,-14 2,-6 3,-13 3,-21 0,-8 -1,-15 -3,-21 -2,-6 -5,-11 -9,-14 -4,-3 -8,-5 -14,-5 -6,0 -10,2 -14,5 -4,3 -7,8 -9,14 -2,6 -3,13 -3,21 0,8 1,15 3,21 2,6 5,11 9,14 4,3 9,5 14,5z"/>
   <path id="3" fill="white" fill-rule="nonzero" d="M1117 238l0 81 -45 0 0 -142 43 0 0 26 2 0c3,-9 9,-16 16,-21 8,-5 17,-7 27,-7 10,0 19,2 26,7 7,4 13,11 17,19 4,8 6,17 6,28l0 91 -45 0 0 -82c0,-8 -2,-14 -6,-19 -4,-4 -10,-7 -17,-7 -5,0 -9,1 -13,3 -4,2 -6,5 -8,9 -2,4 -3,8 -3,14z"/>
   <path id="4" fill="white" fill-rule="nonzero" d="M1353 322c-13,0 -25,-2 -34,-7 -10,-5 -17,-11 -22,-19 -5,-8 -8,-17 -8,-27 0,-7 1,-14 4,-19 3,-6 7,-11 12,-15 5,-5 11,-9 18,-14l40 -25c4,-3 8,-6 10,-9 2,-3 3,-6 3,-9 0,-3 -1,-6 -4,-9 -3,-3 -7,-4 -12,-4 -3,0 -6,1 -9,2 -2,1 -4,3 -6,5 -1,2 -2,5 -2,8 0,4 1,8 3,12 2,4 5,8 9,13 4,4 8,9 12,15l91 102 -46 0 -76 -82c-4,-5 -9,-10 -14,-16 -5,-6 -9,-13 -12,-20 -3,-7 -5,-15 -5,-23 0,-9 2,-18 7,-26 4,-8 11,-14 19,-18 8,-5 17,-7 28,-7 10,0 19,2 27,6 8,4 13,10 17,17 4,7 6,15 6,23 0,9 -2,17 -7,24 -4,7 -11,14 -19,20l-39 28c-4,3 -7,6 -10,9 -2,3 -4,7 -4,11 0,4 1,8 3,11 2,3 5,5 8,7 4,2 8,3 13,3 6,0 13,-2 19,-5 6,-3 12,-7 18,-13 5,-6 10,-12 13,-20 3,-8 5,-16 5,-25l36 0c0,11 -1,22 -4,32 -2,10 -6,18 -11,26 -5,8 -11,14 -18,19 -2,1 -4,2 -6,4 -2,1 -4,2 -6,4 -7,5 -15,9 -24,11 -9,2 -17,3 -25,3z"/>
   <path id="5" fill="white" fill-rule="nonzero" d="M1630 186c-1,-7 -3,-12 -8,-16 -5,-4 -12,-6 -21,-6 -6,0 -11,1 -15,2 -4,2 -7,4 -9,6 -2,3 -3,6 -3,9 0,3 0,5 2,8 1,2 3,4 6,6 2,2 5,3 9,4 3,1 7,2 12,3l16 4c9,2 18,5 25,8 7,3 13,7 18,12 5,5 9,10 11,16 3,6 4,13 4,21 0,12 -3,22 -9,31 -6,9 -15,15 -26,20 -11,5 -25,7 -40,7 -16,0 -30,-2 -41,-7 -12,-5 -21,-12 -27,-22 -7,-10 -10,-22 -10,-37l44 0c0,6 2,11 5,15 3,4 7,7 12,9 5,2 11,3 18,3 6,0 11,-1 16,-3 4,-2 8,-4 10,-7 2,-3 4,-6 4,-10 0,-4 -1,-7 -3,-9 -2,-3 -5,-5 -10,-7 -4,-2 -10,-4 -17,-5l-20 -5c-16,-4 -29,-10 -39,-18 -9,-8 -14,-20 -14,-34 0,-12 3,-22 9,-31 6,-9 15,-16 26,-21 11,-5 24,-7 38,-7 15,0 27,2 38,7 11,5 19,12 25,21 6,9 9,19 9,31l-44 0z"/>
   <path id="6" fill="white" fill-rule="nonzero" d="M1780 177l0 33 -90 0 0 -33 90 0zm-71 -34l45 0 0 132c0,3 0,5 1,7 1,2 2,3 4,4 2,1 4,1 6,1 2,0 4,0 5,-1 2,0 3,-1 4,-1l7 33c-2,1 -5,1 -9,2 -4,1 -9,2 -14,2 -11,0 -20,-1 -27,-4 -8,-3 -13,-8 -17,-14 -4,-6 -6,-14 -6,-24l0 -137z"/>
   <path id="7" fill="white" fill-rule="nonzero" d="M1844 321c-9,0 -17,-2 -24,-5 -7,-3 -13,-8 -17,-14 -4,-6 -6,-14 -6,-23 0,-8 1,-15 4,-20 3,-5 7,-10 11,-13 5,-3 10,-6 17,-8 6,-2 13,-3 20,-4 8,-1 15,-2 20,-2 5,-1 9,-2 11,-4 2,-2 3,-4 3,-7l0 0c0,-5 -2,-8 -5,-11 -3,-3 -8,-4 -13,-4 -6,0 -11,1 -14,4 -4,3 -6,6 -7,11l-42 -2c1,-9 4,-16 10,-23 5,-7 12,-12 21,-16 9,-4 20,-6 33,-6 9,0 17,1 25,3 8,2 14,5 20,9 6,4 10,9 13,15 3,6 5,13 5,20l0 97 -43 0 0 -20 -1 0c-3,5 -6,9 -10,12 -4,3 -9,6 -14,8 -5,2 -11,2 -18,2zm14 -30c5,0 9,-1 13,-3 4,-2 7,-5 9,-8 2,-3 4,-8 4,-12l0 -14c-1,1 -3,1 -5,2 -2,1 -4,1 -6,2 -2,1 -4,1 -7,1 -2,0 -4,1 -7,1 -4,1 -8,2 -11,3 -3,1 -5,3 -7,6 -2,2 -2,5 -2,8 0,5 2,8 5,11 3,2 8,4 13,4z"/>
   <path id="8" fill="white" fill-rule="nonzero" d="M1956 319l0 -142 44 0 0 26 1 0c3,-9 7,-16 13,-21 6,-5 13,-7 20,-7 2,0 4,0 6,0 2,0 4,1 6,1l0 39c-2,-1 -5,-1 -8,-2 -3,0 -7,-1 -9,-1 -5,0 -10,1 -14,4 -4,2 -8,6 -10,10 -2,4 -4,9 -4,15l0 77 -45 0z"/>
   <path id="9" fill="white" fill-rule="nonzero" d="M2190 220l-42 1c0,-3 -2,-6 -4,-8 -2,-2 -4,-4 -7,-5 -3,-1 -7,-2 -11,-2 -5,0 -10,1 -13,3 -4,2 -5,5 -5,9 0,3 1,5 3,7 2,2 6,4 12,5l27 5c14,3 25,7 32,14 7,6 10,15 10,25 0,10 -3,18 -9,25 -6,7 -13,13 -23,17 -10,4 -21,6 -34,6 -20,0 -36,-4 -48,-13 -12,-8 -18,-20 -20,-34l45 -1c1,5 4,9 8,12 4,3 9,4 16,4 6,0 11,-1 14,-3 4,-2 5,-5 6,-9 0,-3 -2,-6 -4,-8 -3,-2 -7,-3 -13,-5l-25 -5c-14,-3 -25,-7 -32,-14 -7,-7 -10,-16 -10,-27 0,-10 2,-18 8,-24 5,-7 12,-12 22,-16 9,-4 21,-5 33,-5 19,0 34,4 46,12 11,8 17,19 18,33z"/>
  </g>
 </g>
</svg>
