<?xml version="1.0" encoding="UTF-8"?>
<!DOCTYPE svg PUBLIC "-//W3C//DTD SVG 1.0//EN" "http://www.w3.org/TR/2001/REC-SVG-20010904/DTD/svg10.dtd">
<!-- Creator: CorelDRAW 2020 (64-Bit) -->
<svg xmlns="http://www.w3.org/2000/svg" xml:space="preserve" width="2.55176cm" height="2.53768cm" version="1.0" shape-rendering="geometricPrecision" text-rendering="geometricPrecision" image-rendering="optimizeQuality" fill-rule="evenodd" clip-rule="evenodd"
viewBox="0 0 161 160"
 xmlns:xlink="http://www.w3.org/1999/xlink"
 xmlns:xodm="http://www.corel.com/coreldraw/odm/2003">
 <g id="Layer_x0020_1">
  <metadata id="CorelCorpID_0Corel-Layer"/>
  <g id="_2962041034944">
   <path fill="white" d="M64 104c12,13 26,22 47,21 22,-1 38,-16 49,-35 4,49 -51,71 -72,71 -21,0 -4,0 -7,0 -3,-21 -10,-41 -17,-56z"/>
   <path fill="white" d="M86 2c-35,7 -44,37 -44,52 0,14 0,2 0,4 -8,-13 -19,-21 -26,-26 15,-23 39,-36 70,-29z"/>
   <path fill="white" d="M39 63c1,15 7,29 17,40 7,15 15,35 17,56 -41,-3 -73,-38 -73,-79 0,-16 4,-30 12,-42 8,5 18,14 26,26z"/>
   <path fill="white" d="M89 14c0,0 3,0 3,2 0,12 10,22 22,22 4,0 4,3 4,3 0,0 1,3 -3,3 -12,0 -22,9 -22,21 0,2 -4,3 -4,3 0,0 -3,0 -4,-3 0,-6 -9,-21 -21,-21 -4,0 -4,-3 -4,-3 0,0 0,-3 5,-3 7,0 20,-9 20,-22 0,-2 3,-2 3,-2z"/>
  </g>
 </g>
</svg>
